<svg xmlns="http://www.w3.org/2000/svg" xmlns:xlink="http://www.w3.org/1999/xlink" xmlns:lucid="lucid" width="587" height="244"><g transform="translate(-411 -431)" lucid:page-tab-id="0_0"><path d="M500 509l40-69h80l40 69-40 69h-80z" stroke="#0c7cba" stroke-width="10" fill="url(#b)" filter="url(#a)"/><path d="M500 509l40-69h80l40 69-40 69h-80z" stroke="#0c7cba" stroke-width="10" fill="url(#c)" filter="url(#a)"/><path d="M500 509l40-69h80l40 69-40 69h-80z" stroke="#0c7cba" stroke-width="10" fill="url(#d)" filter="url(#a)"/><g filter="url(#e)"><path d="M680 520h280v80H680z" stroke="#000" stroke-opacity="0" stroke-width="2" fill="url(#f)"/><use xlink:href="#g" transform="matrix(1,0,0,1,685,525) translate(0 49.6875)"/></g><g filter="url(#h)"><path d="M600 600h380v80H600z" stroke="#000" stroke-opacity="0" stroke-width="2" fill="url(#i)"/><use xlink:href="#j" transform="matrix(1,0,0,1,605,605) translate(0 49.6875)"/></g><path d="M420 589l40-69h80l40 69-40 69h-80z" stroke="#0c7cba" stroke-width="10" fill="url(#k)" filter="url(#a)"/><path d="M420 589l40-69h80l40 69-40 69h-80z" stroke="#0c7cba" stroke-width="10" fill="url(#l)" filter="url(#a)"/><path d="M420 589l40-69h80l40 69-40 69h-80z" stroke="#0c7cba" stroke-width="10" fill="url(#m)" filter="url(#a)"/><g filter="url(#e)"><path d="M680 520h280v80H680z" stroke="#000" stroke-opacity="0" stroke-width="2" fill="url(#n)"/><use xlink:href="#g" transform="matrix(1,0,0,1,685,525) translate(0 49.6875)"/></g><g filter="url(#h)"><path d="M600 600h380v80H600z" stroke="#000" stroke-opacity="0" stroke-width="2" fill="url(#o)"/><use xlink:href="#j" transform="matrix(1,0,0,1,605,605) translate(0 49.6875)"/></g><g filter="url(#e)"><path d="M680 520h280v80H680z" stroke="#000" stroke-opacity="0" stroke-width="2" fill="url(#p)"/><use xlink:href="#g" transform="matrix(1,0,0,1,685,525) translate(0 49.6875)"/></g><g filter="url(#h)"><path d="M600 600h380v80H600z" stroke="#000" stroke-opacity="0" stroke-width="2" fill="url(#q)"/><use xlink:href="#j" transform="matrix(1,0,0,1,605,605) translate(0 49.6875)"/></g><defs><radialGradient gradientUnits="userSpaceOnUse" id="b" fx="601.05" fy="505.37" cx="601.05" cy="505.37" r="80"><stop offset="0%" stop-color="#636363" stop-opacity="0"/><stop offset="80%" stop-opacity="0"/><stop offset="100%" stop-opacity="0"/><stop offset="42.39%" stop-color="#373737" stop-opacity="0"/></radialGradient><filter id="a" filterUnits="objectBoundingBox" x="-.03" y="-.03" width="1.05" height="1.06"><feOffset result="offOut" in="SourceAlpha"/><feGaussianBlur result="blurOut" in="offOut" stdDeviation="2"/><feColorMatrix result="colorOut" in="blurOut" values="0 0 0 0 0 0 0 0 0 0 0 0 0 0 0 0 0 0 0.5019607843137255 0"/><feBlend in="SourceGraphic" in2="colorOut"/></filter><radialGradient gradientUnits="userSpaceOnUse" id="c" fx="601.05" fy="505.37" cx="601.05" cy="505.37" r="80"><stop offset="0%" stop-color="#636363" stop-opacity="0"/><stop offset="80%" stop-opacity="0"/><stop offset="100%" stop-opacity="0"/><stop offset="42.39%" stop-color="#373737" stop-opacity="0"/></radialGradient><radialGradient gradientUnits="userSpaceOnUse" id="d" fx="601.05" fy="505.37" cx="601.05" cy="505.37" r="80"><stop offset="0%" stop-color="#636363" stop-opacity="0"/><stop offset="80%" stop-opacity="0"/><stop offset="100%" stop-opacity="0"/><stop offset="42.39%" stop-color="#373737" stop-opacity="0"/></radialGradient><radialGradient gradientUnits="userSpaceOnUse" id="f" fx="856.84" fy="557.89" cx="856.84" cy="557.89" r="140"><stop offset="0%" stop-color="#636363" stop-opacity="0"/><stop offset="80%" stop-opacity="0"/><stop offset="100%" stop-opacity="0"/><stop offset="42.39%" stop-color="#373737" stop-opacity="0"/></radialGradient><path fill="#0c7cba" d="M184 0v-1462h310V0H184" id="r"/><path fill="#0c7cba" d="M795-1139c261-1 398 148 397 410V0H887v-653c-1-148-42-242-180-242-202 0-242 139-242 369V0H160v-1118h233l41 143h17c62-102 185-163 344-164" id="s"/><path fill="#0c7cba" d="M637-1325c-111 0-131 91-123 207h264v229H514V0H209v-889H41v-147l168-82c-18-311 94-449 395-449 105 0 199 16 281 47l-78 224c-61-19-118-29-170-29" id="t"/><path fill="#0c7cba" d="M479-1407c-1 99-61 150-166 150-111 0-166-50-166-150 0-99 55-149 166-149s166 50 166 149zM465 0H160v-1118h305V0" id="u"/><path fill="#0c7cba" d="M498-350c-2 85 52 126 133 127 53 0 117-12 192-35v227C747 3 654 20 543 20c-247 0-350-124-350-370v-539H47v-129l168-102 88-236h195v238h313v229H498v539" id="v"/><path fill="#0c7cba" d="M836-686c0-141-77-236-213-236-140 0-206 98-215 236h428zm223 627C946-4 838 19 666 20 308 22 92-191 92-551c0-356 187-588 529-588 314 0 504 195 501 508v148H401c5 169 104 277 279 276 158-2 261-33 379-88v236" id="w"/><g id="g"><use transform="matrix(0.03385416666666667,0,0,0.03385416666666667,0,0)" xlink:href="#r"/><use transform="matrix(0.03385416666666667,0,0,0.03385416666666667,22.953125000000004,0)" xlink:href="#s"/><use transform="matrix(0.03385416666666667,0,0,0.03385416666666667,68.52083333333334,0)" xlink:href="#t"/><use transform="matrix(0.03385416666666667,0,0,0.03385416666666667,95.36718750000001,0)" xlink:href="#u"/><use transform="matrix(0.03385416666666667,0,0,0.03385416666666667,116.52604166666669,0)" xlink:href="#s"/><use transform="matrix(0.03385416666666667,0,0,0.03385416666666667,162.09375000000003,0)" xlink:href="#u"/><use transform="matrix(0.03385416666666667,0,0,0.03385416666666667,183.25260416666669,0)" xlink:href="#v"/><use transform="matrix(0.03385416666666667,0,0,0.03385416666666667,213.34895833333337,0)" xlink:href="#w"/></g><filter id="e" filterUnits="objectBoundingBox" x="-.01" y="-.05" width="1.03" height="1.1"><feOffset result="offOut" in="SourceAlpha"/><feGaussianBlur result="blurOut" in="offOut" stdDeviation="2"/><feColorMatrix result="colorOut" in="blurOut" values="0 0 0 0 0 0 0 0 0 0 0 0 0 0 0 0 0 0 0.5019607843137255 0"/><feBlend in="SourceGraphic" in2="colorOut"/></filter><radialGradient gradientUnits="userSpaceOnUse" id="i" fx="840" fy="637.89" cx="840" cy="637.89" r="190"><stop offset="0%" stop-color="#636363" stop-opacity="0"/><stop offset="80%" stop-opacity="0"/><stop offset="100%" stop-opacity="0"/><stop offset="42.39%" stop-color="#373737" stop-opacity="0"/></radialGradient><path fill="#0c7cba" d="M748 0H438v-1204H41v-258h1104v258H748V0" id="x"/><path fill="#0c7cba" d="M954-63C853 0 774 20 614 20 266 20 92-171 92-553c0-369 188-586 549-586 129 0 245 25 348 76l-90 236c-84-31-156-66-258-66-159 0-238 113-238 338 0 219 79 328 238 328 137 0 223-38 313-97v261" id="y"/><path fill="#0c7cba" d="M791-1139c262-1 402 148 401 410V0H887v-653c0-161-60-242-180-242-201 0-242 142-242 369V0H160v-1556h305c-1 210 6 368-14 581h16c68-109 176-164 324-164" id="z"/><path fill="#0c7cba" d="M633-893c-183 0-230 133-230 332s48 336 232 336c183 0 229-137 229-336s-47-332-231-332zm4-246c347 5 535 225 539 578S978 25 631 20C283 15 96-208 92-561c-4-355 196-583 545-578" id="A"/><path fill="#0c7cba" d="M465 0H160v-1556h305V0" id="B"/><path fill="#0c7cba" d="M549-1139c43 0 163 15 194 21h390v155l-175 45c32 50 48 106 48 168 2 289-261 415-574 373-89 78-53 146 121 146h190c229-1 375 93 377 311 0 131-55 232-164 304S691 492 487 492c-156 0-275-28-357-82S6 280 6 182C6 26 113-51 254-84c-55-22-119-89-117-162 3-107 68-140 144-190C169-483 89-600 90-756c1-259 185-383 459-383zM467 14c-100-2-199 51-197 144 3 184 368 146 487 90 62-30 93-71 93-123 0-42-19-70-55-87-64-30-222-23-328-24zm82-569c118 0 165-80 166-197 0-135-55-202-166-202-112 0-168 67-168 202 0 117 52 197 168 197" id="C"/><path fill="#0c7cba" d="M0-1118h334l211 629c18 55 30 119 37 194h6c7-69 23-133 43-194l207-629h327L692 143C611 389 392 544 70 475V233c95 21 196 18 262-37 50-42 89-123 112-204" id="D"/><g id="j"><use transform="matrix(0.03385416666666667,0,0,0.03385416666666667,0,0)" xlink:href="#x"/><use transform="matrix(0.03385416666666667,0,0,0.03385416666666667,35.309895833333336,0)" xlink:href="#w"/><use transform="matrix(0.03385416666666667,0,0,0.03385416666666667,76.2734375,0)" xlink:href="#y"/><use transform="matrix(0.03385416666666667,0,0,0.03385416666666667,111.921875,0)" xlink:href="#z"/><use transform="matrix(0.03385416666666667,0,0,0.03385416666666667,157.48958333333334,0)" xlink:href="#s"/><use transform="matrix(0.03385416666666667,0,0,0.03385416666666667,203.05729166666669,0)" xlink:href="#A"/><use transform="matrix(0.03385416666666667,0,0,0.03385416666666667,245.98437500000003,0)" xlink:href="#B"/><use transform="matrix(0.03385416666666667,0,0,0.03385416666666667,267.1432291666667,0)" xlink:href="#A"/><use transform="matrix(0.03385416666666667,0,0,0.03385416666666667,310.0703125,0)" xlink:href="#C"/><use transform="matrix(0.03385416666666667,0,0,0.03385416666666667,349.2395833333333,0)" xlink:href="#D"/></g><filter id="h" filterUnits="objectBoundingBox" x="-.01" y="-.05" width="1.02" height="1.1"><feOffset result="offOut" in="SourceAlpha"/><feGaussianBlur result="blurOut" in="offOut" stdDeviation="2"/><feColorMatrix result="colorOut" in="blurOut" values="0 0 0 0 0 0 0 0 0 0 0 0 0 0 0 0 0 0 0.5019607843137255 0"/><feBlend in="SourceGraphic" in2="colorOut"/></filter><radialGradient gradientUnits="userSpaceOnUse" id="k" fx="521.05" fy="585.37" cx="521.05" cy="585.37" r="80"><stop offset="0%" stop-color="#636363" stop-opacity="0"/><stop offset="80%" stop-opacity="0"/><stop offset="100%" stop-opacity="0"/><stop offset="42.39%" stop-color="#373737" stop-opacity="0"/></radialGradient><radialGradient gradientUnits="userSpaceOnUse" id="l" fx="521.05" fy="585.37" cx="521.05" cy="585.37" r="80"><stop offset="0%" stop-color="#636363" stop-opacity="0"/><stop offset="80%" stop-opacity="0"/><stop offset="100%" stop-opacity="0"/><stop offset="42.39%" stop-color="#373737" stop-opacity="0"/></radialGradient><radialGradient gradientUnits="userSpaceOnUse" id="m" fx="521.05" fy="585.37" cx="521.05" cy="585.37" r="80"><stop offset="0%" stop-color="#636363" stop-opacity="0"/><stop offset="80%" stop-opacity="0"/><stop offset="100%" stop-opacity="0"/><stop offset="42.39%" stop-color="#373737" stop-opacity="0"/></radialGradient><radialGradient gradientUnits="userSpaceOnUse" id="n" fx="856.84" fy="557.89" cx="856.84" cy="557.89" r="140"><stop offset="0%" stop-color="#636363" stop-opacity="0"/><stop offset="80%" stop-opacity="0"/><stop offset="100%" stop-opacity="0"/><stop offset="42.39%" stop-color="#373737" stop-opacity="0"/></radialGradient><radialGradient gradientUnits="userSpaceOnUse" id="o" fx="840" fy="637.89" cx="840" cy="637.89" r="190"><stop offset="0%" stop-color="#636363" stop-opacity="0"/><stop offset="80%" stop-opacity="0"/><stop offset="100%" stop-opacity="0"/><stop offset="42.39%" stop-color="#373737" stop-opacity="0"/></radialGradient><radialGradient gradientUnits="userSpaceOnUse" id="p" fx="856.84" fy="557.89" cx="856.84" cy="557.89" r="140"><stop offset="0%" stop-color="#636363" stop-opacity="0"/><stop offset="80%" stop-opacity="0"/><stop offset="100%" stop-opacity="0"/><stop offset="42.39%" stop-color="#373737" stop-opacity="0"/></radialGradient><radialGradient gradientUnits="userSpaceOnUse" id="q" fx="840" fy="637.89" cx="840" cy="637.89" r="190"><stop offset="0%" stop-color="#636363" stop-opacity="0"/><stop offset="80%" stop-opacity="0"/><stop offset="100%" stop-opacity="0"/><stop offset="42.39%" stop-color="#373737" stop-opacity="0"/></radialGradient></defs></g></svg>